<svg width="50" height="50" viewBox="0 0 50 50" fill="none" xmlns="http://www.w3.org/2000/svg">
<path id="arrow" fill-rule="evenodd" clip-rule="evenodd" d="M25 50C31.6304 50 37.9893 47.3661 42.6777 42.6777C47.3661 37.9893 50 31.6304 50 25C50 18.3696 47.3661 12.0107 42.6777 7.32233C37.9893 2.63392 31.6304 0 25 0C18.3696 0 12.0107 2.63392 7.32233 7.32233C2.63392 12.0107 0 18.3696 0 25C0 31.6304 2.63392 37.9893 7.32233 42.6777C12.0107 47.3661 18.3696 50 25 50ZM27.2094 17.8344C27.7786 17.245 28.0936 16.4556 28.0865 15.6362C28.0794 14.8169 27.7507 14.0331 27.1713 13.4537C26.5919 12.8743 25.8081 12.5456 24.9888 12.5385C24.1694 12.5314 23.38 12.8464 22.7906 13.4156L13.4156 22.7906C12.8298 23.3766 12.5007 24.1714 12.5007 25C12.5007 25.8286 12.8298 26.6234 13.4156 27.2094L22.7906 36.5844C23.38 37.1536 24.1694 37.4686 24.9888 37.4615C25.8081 37.4544 26.5919 37.1257 27.1713 36.5463C27.7507 35.9669 28.0794 35.1831 28.0865 34.3638C28.0936 33.5444 27.7786 32.755 27.2094 32.1656L23.1687 28.125H34.375C35.2038 28.125 35.9987 27.7958 36.5847 27.2097C37.1708 26.6237 37.5 25.8288 37.5 25C37.5 24.1712 37.1708 23.3763 36.5847 22.7903C35.9987 22.2042 35.2038 21.875 34.375 21.875H23.1687L27.2094 17.8344Z" fill="white"/>
</svg>
