<svg width="128" height="129" viewBox="0 0 128 129" fill="none" xmlns="http://www.w3.org/2000/svg">
<rect x="0.5" y="0.5" width="127" height="128" rx="63.5" fill="#EDF5FF"/>
<rect x="0.5" y="0.5" width="127" height="128" rx="63.5" stroke="#89A5C8"/>
<g clip-path="url(#clip0_462_322)">
<path fill-rule="evenodd" clip-rule="evenodd" d="M68.2857 54.2859C68.2857 61.3866 62.5294 67.143 55.4286 67.143C48.3278 67.143 42.5714 61.3866 42.5714 54.2859C42.5714 47.1851 48.3278 41.4287 55.4286 41.4287C62.5294 41.4287 68.2857 47.1851 68.2857 54.2859ZM55.4286 71.4286C43.5939 71.4286 34 81.0226 34 92.8571C34 94.0404 34.9594 95 36.1429 95H74.7143C75.8977 95 76.8571 94.0404 76.8571 92.8571C76.8571 81.0226 67.2632 71.4286 55.4286 71.4286ZM91.8576 95H81.904C82.1063 94.3212 82.2147 93.6016 82.2147 92.8571C82.2147 84.1096 78.0216 76.3416 71.5357 71.4532C71.879 71.4369 72.2244 71.4286 72.5718 71.4286C84.4064 71.4286 94.0004 81.0226 94.0004 92.8571C94.0004 94.0404 93.0409 95 91.8576 95ZM72.5718 67.143C71.2786 67.143 70.0301 66.9521 68.8528 66.5969C71.8275 63.3551 73.6432 59.0325 73.6432 54.2859C73.6432 49.5392 71.8275 45.2166 68.8528 41.9748C70.0301 41.6196 71.2786 41.4287 72.5718 41.4287C79.6724 41.4287 85.429 47.1851 85.429 54.2859C85.429 61.3866 79.6724 67.143 72.5718 67.143Z" fill="#24558F"/>
</g>
<defs>
<clipPath id="clip0_462_322">
<rect width="60" height="60" fill="white" transform="translate(34 35)"/>
</clipPath>
</defs>
</svg>
