<svg width="150" height="150" viewBox="0 0 150 150" fill="none" xmlns="http://www.w3.org/2000/svg">
<g id="camera">
<path id="Vector" d="M18.75 56.25C18.75 52.9348 20.067 49.7554 22.4112 47.4112C24.7554 45.067 27.9348 43.75 31.25 43.75H37.0625C39.1199 43.7503 41.1456 43.2428 42.9598 42.2724C44.774 41.3021 46.3206 39.899 47.4625 38.1875L52.5375 30.5625C53.6794 28.851 55.226 27.4479 57.0402 26.4776C58.8544 25.5072 60.8801 24.9997 62.9375 25H87.0625C89.1199 24.9997 91.1456 25.5072 92.9598 26.4776C94.774 27.4479 96.3206 28.851 97.4625 30.5625L102.538 38.1875C103.679 39.899 105.226 41.3021 107.04 42.2724C108.854 43.2428 110.88 43.7503 112.937 43.75H118.75C122.065 43.75 125.245 45.067 127.589 47.4112C129.933 49.7554 131.25 52.9348 131.25 56.25V112.5C131.25 115.815 129.933 118.995 127.589 121.339C125.245 123.683 122.065 125 118.75 125H31.25C27.9348 125 24.7554 123.683 22.4112 121.339C20.067 118.995 18.75 115.815 18.75 112.5V56.25Z" stroke="white" stroke-width="5" stroke-linecap="round" stroke-linejoin="round"/>
<path id="Vector_2" d="M93.75 81.25C93.75 86.2228 91.7746 90.9919 88.2583 94.5083C84.7419 98.0246 79.9728 100 75 100C70.0272 100 65.2581 98.0246 61.7417 94.5083C58.2254 90.9919 56.25 86.2228 56.25 81.25C56.25 76.2772 58.2254 71.5081 61.7417 67.9917C65.2581 64.4754 70.0272 62.5 75 62.5C79.9728 62.5 84.7419 64.4754 88.2583 67.9917C91.7746 71.5081 93.75 76.2772 93.75 81.25Z" stroke="white" stroke-width="5" stroke-linecap="round" stroke-linejoin="round"/>
</g>
</svg>
